<svg width="662" height="662" viewBox="0 0 662 662" fill="none" xmlns="http://www.w3.org/2000/svg">
<path d="M309.019 203.82L276.156 219.819L332.595 259.939L362.927 232.719L309.019 203.82Z" fill="#022F97"/>
<path d="M265.508 150.047L276.168 219.805L309.021 203.821L310.194 172.223L265.508 150.047Z" fill="#0868E7"/>
<path d="M304.221 141.82L265.492 150.032L310.194 172.225L304.221 141.82Z" fill="#001870"/>
<path d="M294.075 82.6016L304.22 141.829L265.5 150.036L294.075 82.6016Z" fill="#001870"/>
<path d="M343.893 112.055L304.195 141.802L310.17 172.225L370.778 145.24L343.893 112.055Z" fill="#022F97"/>
<path d="M294.055 82.5938L343.894 112.06L304.2 141.803L294.055 82.5938Z" fill="#0868E7"/>
<path d="M408.546 99.3594L343.898 112.066L370.779 145.238L408.546 99.3594Z" fill="#31B5FC"/>
<path d="M250.849 584.839L227.086 517.555L271.608 499.469L306.52 533.242L250.849 584.839Z" fill="#023B9F"/>
<path d="M173.45 551.712L227.104 517.539L250.871 584.849L172.195 609.767L173.45 551.712Z" fill="#0075ED"/>
<path d="M215.315 564.984L250.863 584.85L172.172 609.768L215.315 564.984Z" fill="#023B9F"/>
<path d="M119.69 542.719L173.449 551.7L172.056 609.51L83.6406 580.923L119.69 542.719Z" fill="#02A0FE"/>
<path d="M137.789 598.38L173.451 551.703L172.192 609.762L137.789 598.38Z" fill="#001870"/>
<path d="M119.721 542.732L101.183 491.812L83.6562 580.954L119.721 542.732Z" fill="#31B5FC"/>
<path d="M227.094 517.558L250.058 459.164L340.543 471.849L227.094 517.558Z" fill="#8EE6FD"/>
<path d="M306.579 533.394L271.648 499.623L340.562 471.82L306.579 533.394Z" fill="#02A0FE"/>
<path d="M250.047 459.165L254.897 386.336L311.138 397.895L250.047 459.165Z" fill="#001870"/>
<path d="M340.553 471.86L250.047 459.162L311.126 397.906L340.553 471.86Z" fill="#022F97"/>
<path d="M392.674 413.688L311.125 397.906L340.544 471.853L392.674 413.688Z" fill="#0092FD"/>
<path d="M254.781 386.467L289.573 316.234L311.123 397.902L254.781 386.467Z" fill="#022F97"/>
<path d="M355.58 333.2L311.132 397.926L289.578 316.375L355.58 333.2Z" fill="#0046A8"/>
<path d="M392.671 413.691L311.133 397.909L355.562 333.188L392.671 413.691Z" fill="#188EFF"/>
<path d="M433.197 357.441L392.679 413.7L355.57 333.188L433.197 357.441Z" fill="#AEE5FC"/>
<path d="M433.188 357.433L355.57 333.189L383.207 283.609L433.188 357.433Z" fill="#0092FD"/>
<path d="M456.991 299.407L433.193 357.432L383.211 283.617L456.991 299.407Z" fill="#45B7FE"/>
<path d="M373.562 223.123L416.09 222.906L452.775 243.775L383.199 283.623L373.562 223.123Z" fill="#31B5FC"/>
<path d="M456.998 299.404L383.219 283.622L452.8 243.773L456.998 299.404Z" fill="#AEE5FC"/>
<path d="M325.672 266.136L373.581 223.133L383.216 283.623L325.672 266.136Z" fill="#188EFF"/>
<path d="M289.523 316.371L325.683 266.125L355.56 333.183L289.523 316.371Z" fill="#022F97"/>
<path d="M383.195 283.609L355.561 333.19L325.68 266.133L383.195 283.609Z" fill="#31B5FC"/>
<path d="M456.441 292.111L453.836 257.312L516.114 258.983L530.891 293.761L456.441 292.111Z" fill="#059CFE"/>
<path d="M542.376 231.797L516.094 258.975L530.88 293.727L595.676 243.595L542.376 231.797Z" fill="#22AFFF"/>
<path d="M515.508 185.698L542.374 231.816L595.66 243.608L568.793 160.32L515.508 185.698Z" fill="#188EFF"/>
<path d="M534.023 135.094L515.547 185.689L568.798 160.32L534.023 135.094Z" fill="#31B5FC"/>
<path d="M621.041 184.803L568.797 160.32L595.663 243.623L621.041 184.803Z" fill="#0868E7"/>
<path d="M557.445 89.5547L568.785 160.311L621.033 184.786L557.445 89.5547Z" fill="#188EFF"/>
<path d="M437.594 346.64L452.863 309.406L527.218 320.654L504.538 342.711L437.594 346.64Z" fill="#0470F3"/>
<path d="M545.548 398.808L504.422 342.852L527.103 320.672L545.548 398.808Z" fill="#00A2FE"/>
<path d="M405.852 395.393L430.521 361.078L469.111 395.464L405.852 395.393Z" fill="#0470F3"/>
<path d="M494.678 372.201L430.547 361.109L469.084 395.477L494.678 372.201Z" fill="#00A2FE"/>
<path d="M504.425 455.476L469.078 395.463L494.568 372.195L504.425 455.476Z" fill="#0046A8"/>
<path d="M356.867 453.592L386.845 420.148L416.456 458.393L356.867 453.592Z" fill="#0470F3"/>
<path d="M446.251 435.651L386.852 420.156L416.439 458.379L446.251 435.651Z" fill="#00A2FE"/>
<path d="M443.658 525.975L416.445 458.387C416.445 458.387 436.368 442.975 446.258 435.648L443.658 525.975Z" fill="#022F97"/>
<path d="M213.682 410.166L207.891 377.586L254.454 393.361L252.144 427.788L213.682 410.166Z" fill="#022F97"/>
<path d="M178.625 442.136L207.882 377.609L213.698 410.196L178.625 442.136Z" fill="#00A2FE"/>
<path d="M220.82 341.201V310.406L278.764 338.039L263.5 368.932L220.82 341.201Z" fill="#001870"/>
<path d="M161.398 367.015L220.824 310.531V341.205L161.398 367.015Z" fill="#022F97"/>
<path d="M293.829 310.401L287.672 263.992L314.902 281.094L293.829 310.401Z" fill="#001870"/>
<path d="M252.656 275.358L287.678 263.984L293.893 310.694L252.656 275.358Z" fill="#0046A8"/>
<path d="M287.685 264.008L253.599 241.117L252.664 275.379L287.685 264.008Z" fill="#188EFF"/>
<path d="M196.656 297.399L253.605 241.117L252.666 275.371L196.656 297.399Z" fill="#022F97"/>
<path d="M412.628 52.2266L294.07 82.6058L343.905 112.068L412.628 52.2266Z" fill="#0868E7"/>
<path d="M101.178 371.633L114.804 418.224L161.395 431.85L114.804 445.475L101.178 492.067L87.5525 445.475L40.9609 431.85L87.5525 418.224L101.178 371.633Z" fill="#0868E7"/>
<path d="M101.155 431.849V371.664L87.5683 418.267L40.9609 431.849H101.155Z" fill="#8EE6FD"/>
<path d="M101.179 431.847V491.383L114.765 445.428L160.953 431.847H101.179Z" fill="#023B9F"/>
</svg>
